<?xml version="1.0" encoding="UTF-8" standalone="no"?>
<svg width="1400px" height="125px" viewBox="0 0 1400 125" version="1.1" xmlns="http://www.w3.org/2000/svg" xmlns:xlink="http://www.w3.org/1999/xlink">
    <!-- Generator: Sketch 48.2 (47327) - http://www.bohemiancoding.com/sketch -->
    <title>Section_Header_Art_Small</title>
    <desc>Created with Sketch.</desc>
    <defs></defs>
    <g id="Assets-Export" stroke="none" stroke-width="1" fill="none" fill-rule="evenodd">
        <g id="Section_Header_Art_Small">
            <path d="M663.696,46.656 L667.856,46.656 L674.864,62.048 L674.864,46.656 L677.808,46.656 L677.808,68 L674.512,68 L666.64,50.912 L666.64,68 L663.696,68 L663.696,46.656 Z M682.808,46.656 L695.032,46.656 L695.032,49.472 L686.328,49.472 L686.328,55.616 L693.144,55.616 L693.144,58.432 L686.328,58.432 L686.328,65.12 L695.16,65.12 L695.16,68 L682.808,68 L682.808,46.656 Z M697.568,46.656 L701.152,46.656 L704.032,62.656 L707.392,46.656 L710.432,46.656 L713.76,62.656 L716.8,46.656 L719.776,46.656 L715.264,68.032 L712.096,68.032 L708.736,52.384 L705.408,68.032 L702.176,68.032 L697.568,46.656 Z M735.592,51.424 L732.584,52.48 C731.784,50.08 730.76,49.184 728.84,49.184 C727.112,49.184 725.928,50.304 725.928,51.872 C725.928,52.608 726.248,53.28 726.792,53.76 C727.432,54.304 728.04,54.592 730.184,55.424 C732.296,56.224 733.288,56.736 734.248,57.568 C735.432,58.592 736.136,60.16 736.136,61.92 C736.136,65.728 733.224,68.384 729,68.384 C726.792,68.384 724.904,67.68 723.592,66.368 C722.568,65.344 722.056,64.352 721.608,62.432 L724.744,61.536 C725.32,64.192 726.728,65.472 729.064,65.472 C731.144,65.472 732.52,64.256 732.52,62.4 C732.52,60.8 731.624,59.936 728.904,58.912 C725.96,57.792 725.416,57.536 724.392,56.64 C723.176,55.584 722.472,54.016 722.472,52.288 C722.472,48.736 725.16,46.272 729.032,46.272 C730.92,46.272 732.488,46.816 733.672,47.936 C734.6,48.8 735.048,49.664 735.592,51.424 Z" id="NEWS" fill="#333333"></path>
            <path d="M-13.5093152,60 L644.020004,60" id="Line-2" stroke="#62C3D1" stroke-width="3" stroke-linecap="square"></path>
            <path d="M757.490685,60 L1415.02,60" id="Line-2" stroke="#62C3D1" stroke-width="3" stroke-linecap="square"></path>
        </g>
    </g>
</svg>